<svg xmlns="http://www.w3.org/2000/svg" viewBox="0 0 820 440" role="img" aria-labelledby="title desc"><title id="title">上下文与记忆：存储不等于送入模型</title><desc id="desc">中文教学结构图，节点和箭头表示应用可观察的数据流；不是模型内部推理。</desc><style>text{font-family:-apple-system,BlinkMacSystemFont,"PingFang SC","Microsoft YaHei",sans-serif;fill:#26344b;font-size:15px}.node{fill:#fff;stroke:#9dabc0;stroke-width:1.4}.accent{fill:#edf3ff;stroke:#3569cf}.boundary{fill:#f7f9fc;stroke:#9dabc0;stroke-dasharray:6 5}.edge{fill:none;stroke:#63748f;stroke-width:1.6;marker-end:url(#arrow)}.label{font-size:12px;fill:#526079}.title{font-size:20px;font-weight:600}.small{font-size:12px}@media(prefers-color-scheme:dark){text{fill:#e5ecfa}.node{fill:#242e3d;stroke:#7d8eab}.accent{fill:#213a61;stroke:#86b2ff}.boundary{fill:#1b2431;stroke:#7d8eab}.label{fill:#bdc9dd}.edge{stroke:#a6b9d7}}</style><defs><marker id="arrow" markerWidth="8" markerHeight="8" refX="7" refY="4" orient="auto"><path d="M0 0L8 4L0 8" fill="#7185a4"/></marker></defs><text x="24" y="32" class="title">上下文与记忆：存储不等于送入模型</text><path d="M240 115L315 168" class="edge"/><text x="255" y="130" class="label">按需读取</text><path d="M240 235L315 185" class="edge"/><path d="M520 175L585 115" class="edge"/><text x="520" y="160" class="label">受窗口预算约束</text><path d="M585 235L520 185" class="edge"/><path d="M685 145V205" class="edge"/><path d="M685 265V365H520" class="edge"/><text x="573" y="350" class="label">候选信息</text><path d="M315 365H140V145" class="edge"/><text x="55" y="350" class="label">验证后持久化</text><rect x="35" y="85" width="205" height="60" rx="7" class="node "/><text x="137.5" y="109.5" text-anchor="middle">长期记忆</text><text x="137.5" y="130.5" text-anchor="middle">偏好 / 事实 / 来源 / 期限</text><rect x="35" y="205" width="205" height="60" rx="7" class="node "/><text x="137.5" y="229.5" text-anchor="middle">文档检索</text><text x="137.5" y="250.5" text-anchor="middle">候选片段与访问权限</text><rect x="315" y="145" width="205" height="60" rx="7" class="node accent"/><text x="417.5" y="169.5" text-anchor="middle">选择 / 去重 / 压缩</text><text x="417.5" y="190.5" text-anchor="middle">保留来源与当前约束</text><rect x="585" y="85" width="205" height="60" rx="7" class="node accent"/><text x="687.5" y="109.5" text-anchor="middle">本次模型上下文</text><text x="687.5" y="130.5" text-anchor="middle">指令 + 工具 + 证据</text><rect x="585" y="205" width="205" height="60" rx="7" class="node "/><text x="687.5" y="229.5" text-anchor="middle">近期消息 / 任务状态</text><text x="687.5" y="250.5" text-anchor="middle">保留必要调用与结果</text><rect x="315" y="335" width="205" height="60" rx="7" class="node "/><text x="417.5" y="359.5" text-anchor="middle">审核新的可记忆事实</text><text x="417.5" y="380.5" text-anchor="middle">显式同意 / 更新 / 删除</text></svg>